<svg xmlns="http://www.w3.org/2000/svg" xmlns:xlink="http://www.w3.org/1999/xlink" width="1920" zoomAndPan="magnify" viewBox="0 0 1440 809.999993" height="1080" preserveAspectRatio="xMidYMid meet" version="1.0"><defs><g/><clipPath id="bc1caa200d"><path d="M 743 336 L 921.507812 336 L 921.507812 399 L 743 399 Z M 743 336 " clip-rule="nonzero"/></clipPath></defs><path fill="#fbc108" d="M 687.414062 368.113281 C 688.40625 408.738281 786.085938 418.671875 771.265625 480.449219 C 762.988281 514.949219 737.132812 554.398438 737.132812 554.398438 L 740.558594 510.085938 L 705.117188 464.078125 C 705.117188 464.078125 679.886719 420.210938 679.605469 418.914062 C 669.570312 372.71875 687.414062 368.113281 687.414062 368.113281 " fill-opacity="1" fill-rule="nonzero"/><path fill="#231f20" d="M 668.457031 369.410156 C 671.90625 358.59375 677.171875 348.109375 684.199219 338.019531 C 671.140625 333.601562 657.398438 333.894531 651.953125 350.660156 C 645.101562 371.769531 654.921875 394.921875 664.113281 410.339844 C 662.714844 396.589844 664.164062 382.867188 668.457031 369.410156 " fill-opacity="1" fill-rule="nonzero"/><g clip-path="url(#bc1caa200d)"><path fill="#231f20" d="M 901.28125 353.722656 C 859.839844 341.199219 823.558594 335.449219 792.9375 336.527344 C 792.679688 337.058594 792.421875 337.589844 792.167969 338.109375 C 790.253906 342.105469 787.90625 345.777344 785.113281 349.160156 C 811.167969 347.011719 842.203125 350.558594 877.839844 359.769531 C 860.953125 365.195312 836.707031 373.289062 819.792969 382.773438 C 799.953125 393.902344 783.132812 386.988281 768.1875 385.382812 C 750.996094 383.535156 743.519531 390.636719 743.519531 390.636719 C 751.453125 387.335938 762.289062 390.320312 773.769531 393.476562 C 787.527344 397.257812 802.867188 401.480469 818.078125 396.644531 C 820.5625 395.855469 823.046875 394.820312 825.515625 393.511719 C 852.8125 378.988281 900.679688 365.535156 901.15625 365.398438 L 921.300781 359.773438 L 901.28125 353.722656 " fill-opacity="1" fill-rule="nonzero"/></g><path fill="#231f20" d="M 735.058594 391.707031 C 735.058594 391.707031 712.1875 393.976562 691.363281 417.347656 C 691.363281 417.347656 724.980469 394.75 745.640625 401.894531 C 749.257812 406.109375 752.675781 410.875 755.734375 415.964844 L 752.5625 411.199219 C 752.5625 411.199219 724.300781 410.964844 700.730469 437.421875 C 700.730469 437.421875 744.050781 415.140625 760.652344 425.082031 C 762.6875 429.304688 764.445312 433.644531 765.859375 437.992188 C 765.882812 438.066406 765.902344 438.140625 765.929688 438.21875 C 756.429688 436.425781 737.113281 435.84375 715.4375 452.574219 C 715.4375 452.574219 745.0625 440.949219 768.703125 451.625 C 769.128906 455.734375 769.191406 459.84375 768.960938 463.894531 C 766.109375 462.964844 749.1875 458.183594 729.503906 468.707031 C 729.503906 468.707031 756.523438 465.367188 768.078125 472.257812 C 767.019531 479.226562 765.214844 485.941406 763.054688 492.160156 C 757.980469 489.355469 750.152344 486.476562 739.902344 487.003906 C 739.902344 487.003906 752.863281 491.246094 761.109375 497.425781 C 759.730469 500.933594 758.261719 504.242188 756.792969 507.296875 C 753.675781 513.792969 750.320312 519.660156 747.203125 524.625 C 742.335938 488.15625 725.628906 473.152344 711.789062 460.722656 C 706.464844 455.9375 701.429688 451.417969 697.757812 446.1875 C 694.003906 440.839844 675.859375 412.285156 687.589844 375.503906 C 693.71875 356.296875 707.03125 338.027344 727.160156 321.203125 C 747.28125 304.390625 774.257812 289 807.558594 275.324219 C 796.621094 290.667969 782.523438 311.753906 774.054688 329.449219 C 767.230469 343.699219 758.742188 354.027344 734.519531 365.554688 C 715.585938 374.566406 714.914062 385.9375 714.914062 385.9375 C 719.480469 378.332031 730.601562 374.058594 742.382812 369.535156 C 759.242188 363.058594 778.347656 355.71875 787.777344 336.011719 C 802.078125 306.125 834.851562 264.023438 835.179688 263.605469 L 851.261719 243.007812 L 826.632812 251.765625 C 780.328125 268.222656 743.578125 287.664062 717.398438 309.542969 C 695.019531 328.246094 680.113281 348.886719 673.097656 370.882812 C 667.816406 387.429688 667.050781 404.390625 670.8125 421.292969 C 674.496094 437.839844 681.472656 449.464844 685.304688 454.921875 C 689.972656 461.570312 695.894531 466.886719 701.621094 472.03125 C 717.160156 485.988281 733.230469 500.421875 733.382812 546.464844 L 733.453125 566.992188 L 746.78125 551.375 C 747.308594 550.75 759.726562 535.863281 770.34375 514.222656 C 811.894531 429.535156 735.058594 391.707031 735.058594 391.707031 " fill-opacity="1" fill-rule="nonzero"/><path fill="#231f20" d="M 613.515625 337.789062 C 611.214844 344.269531 605.554688 348.175781 600.871094 346.519531 C 596.1875 344.859375 594.257812 338.261719 596.554688 331.777344 C 598.855469 325.296875 604.515625 321.386719 609.199219 323.046875 C 613.882812 324.703125 615.816406 331.304688 613.515625 337.789062 Z M 653.074219 301.988281 C 643.757812 293.910156 631.292969 291.539062 619.5 294.421875 C 618.285156 292.652344 616.945312 290.851562 615.460938 289.046875 C 608.988281 281.179688 601.171875 274.953125 592.222656 270.53125 C 582.128906 265.542969 570.601562 262.875 557.90625 262.582031 C 555.757812 262.53125 554.003906 264.292969 554.039062 266.4375 C 554.066406 268.488281 555.722656 270.132812 557.777344 270.179688 C 579.511719 270.671875 596.859375 278.554688 609.386719 293.632812 C 610.324219 294.761719 611.199219 295.890625 612.015625 297.015625 C 609.085938 298.34375 606.253906 300.011719 603.59375 302.027344 C 598.4375 299.71875 590.226562 296.773438 580.125 295.707031 C 569.992188 294.636719 560.046875 295.671875 550.5625 298.789062 C 539.867188 302.308594 529.777344 308.480469 520.519531 317.171875 C 518.953125 318.636719 518.941406 321.125 520.46875 322.632812 C 521.929688 324.070312 524.261719 324.085938 525.761719 322.679688 C 541.601562 307.800781 559.5 301.261719 579.011719 303.234375 C 586.421875 303.980469 592.761719 305.890625 597.382812 307.6875 C 597.117188 307.976562 596.855469 308.269531 596.597656 308.566406 C 581.394531 326.070312 583.492188 373.703125 600.566406 386.222656 C 611.757812 394.425781 639.304688 376.296875 654.503906 358.792969 C 669.707031 341.292969 669.066406 315.859375 653.074219 301.988281 " fill-opacity="1" fill-rule="nonzero"/><g fill="#000000" fill-opacity="1"><g transform="translate(793.60187, 557.028674)"><g><path d="M 166.390625 -122.6875 C 166.390625 -111.820312 162.550781 -102.457031 154.875 -94.59375 C 147.207031 -86.738281 136.03125 -81.085938 121.34375 -77.640625 C 129.257812 -75.460938 135.257812 -71.910156 139.34375 -66.984375 C 143.4375 -62.066406 145.484375 -56.414062 145.484375 -50.03125 C 145.484375 -39.9375 142.320312 -31.179688 136 -23.765625 C 129.675781 -16.359375 120.441406 -10.640625 108.296875 -6.609375 C 96.160156 -2.585938 81.53125 -0.578125 64.40625 -0.578125 C 58.019531 -0.578125 52.910156 -0.769531 49.078125 -1.15625 C 48.941406 2.425781 47.40625 5.109375 44.46875 6.890625 C 41.53125 8.679688 37.757812 9.578125 33.15625 9.578125 C 28.5625 9.578125 25.398438 8.554688 23.671875 6.515625 C 21.941406 4.472656 21.207031 1.472656 21.46875 -2.484375 C 22.613281 -20.378906 24.847656 -39.132812 28.171875 -58.75 C 31.492188 -78.363281 35.710938 -97.3125 40.828125 -115.59375 C 41.722656 -118.78125 43.507812 -121.015625 46.1875 -122.296875 C 48.875 -123.578125 52.390625 -124.21875 56.734375 -124.21875 C 64.535156 -124.21875 68.4375 -122.046875 68.4375 -117.703125 C 68.4375 -115.910156 68.050781 -113.863281 67.28125 -111.5625 C 63.957031 -101.59375 60.632812 -88.078125 57.3125 -71.015625 C 53.988281 -53.960938 51.625 -37.703125 50.21875 -22.234375 C 56.351562 -21.722656 61.335938 -21.46875 65.171875 -21.46875 C 83.066406 -21.46875 96.195312 -24.054688 104.5625 -29.234375 C 112.9375 -34.410156 117.125 -41.023438 117.125 -49.078125 C 117.125 -54.691406 114.726562 -59.414062 109.9375 -63.25 C 105.144531 -67.082031 97.125 -69.191406 85.875 -69.578125 C 83.320312 -69.710938 81.53125 -70.351562 80.5 -71.5 C 79.476562 -72.644531 78.96875 -74.5 78.96875 -77.0625 C 78.96875 -80.769531 79.734375 -83.769531 81.265625 -86.0625 C 82.804688 -88.363281 85.617188 -89.578125 89.703125 -89.703125 C 98.773438 -89.960938 106.984375 -91.304688 114.328125 -93.734375 C 121.679688 -96.160156 127.46875 -99.578125 131.6875 -103.984375 C 135.90625 -108.398438 138.015625 -113.546875 138.015625 -119.421875 C 138.015625 -126.835938 134.367188 -132.679688 127.078125 -136.953125 C 119.796875 -141.234375 108.617188 -143.375 93.546875 -143.375 C 79.867188 -143.375 66.640625 -141.617188 53.859375 -138.109375 C 41.085938 -134.597656 30.226562 -130.15625 21.28125 -124.78125 C 17.1875 -122.351562 13.734375 -121.140625 10.921875 -121.140625 C 8.617188 -121.140625 6.859375 -121.9375 5.640625 -123.53125 C 4.429688 -125.132812 3.828125 -127.148438 3.828125 -129.578125 C 3.828125 -132.773438 4.5 -135.523438 5.84375 -137.828125 C 7.1875 -140.128906 10.414062 -142.75 15.53125 -145.6875 C 26.257812 -151.820312 38.84375 -156.613281 53.28125 -160.0625 C 67.726562 -163.507812 82.488281 -165.234375 97.5625 -165.234375 C 120.695312 -165.234375 137.953125 -161.332031 149.328125 -153.53125 C 160.703125 -145.738281 166.390625 -135.457031 166.390625 -122.6875 Z M 166.390625 -122.6875 "/></g></g></g><g fill="#000000" fill-opacity="1"><g transform="translate(945.416236, 557.028674)"><g><path d="M 94.6875 -42.75 C 96.351562 -42.75 97.664062 -41.976562 98.625 -40.4375 C 99.582031 -38.90625 100.0625 -36.800781 100.0625 -34.125 C 100.0625 -29.007812 98.847656 -25.046875 96.421875 -22.234375 C 91.691406 -16.484375 85.015625 -11.179688 76.390625 -6.328125 C 67.765625 -1.472656 58.53125 0.953125 48.6875 0.953125 C 35.269531 0.953125 24.851562 -2.6875 17.4375 -9.96875 C 10.03125 -17.25 6.328125 -27.21875 6.328125 -39.875 C 6.328125 -48.6875 8.175781 -56.894531 11.875 -64.5 C 15.582031 -72.101562 20.726562 -78.140625 27.3125 -82.609375 C 33.894531 -87.085938 41.335938 -89.328125 49.640625 -89.328125 C 57.054688 -89.328125 63 -87.117188 67.46875 -82.703125 C 71.945312 -78.296875 74.1875 -72.328125 74.1875 -64.796875 C 74.1875 -55.972656 71.019531 -48.398438 64.6875 -42.078125 C 58.363281 -35.753906 47.664062 -30.738281 32.59375 -27.03125 C 35.78125 -21.144531 41.847656 -18.203125 50.796875 -18.203125 C 56.546875 -18.203125 63.09375 -20.210938 70.4375 -24.234375 C 77.789062 -28.265625 84.148438 -33.539062 89.515625 -40.0625 C 91.046875 -41.851562 92.769531 -42.75 94.6875 -42.75 Z M 46.390625 -70.546875 C 41.660156 -70.546875 37.664062 -67.796875 34.40625 -62.296875 C 31.144531 -56.804688 29.515625 -50.160156 29.515625 -42.359375 L 29.515625 -41.984375 C 37.054688 -43.765625 43 -46.441406 47.34375 -50.015625 C 51.6875 -53.597656 53.859375 -57.753906 53.859375 -62.484375 C 53.859375 -64.910156 53.1875 -66.859375 51.84375 -68.328125 C 50.507812 -69.804688 48.691406 -70.546875 46.390625 -70.546875 Z M 46.390625 -70.546875 "/></g></g></g><g fill="#000000" fill-opacity="1"><g transform="translate(1020.748552, 557.028674)"><g><path d="M 94.6875 -42.75 C 96.351562 -42.75 97.664062 -41.976562 98.625 -40.4375 C 99.582031 -38.90625 100.0625 -36.800781 100.0625 -34.125 C 100.0625 -29.007812 98.847656 -25.046875 96.421875 -22.234375 C 91.691406 -16.484375 85.015625 -11.179688 76.390625 -6.328125 C 67.765625 -1.472656 58.53125 0.953125 48.6875 0.953125 C 35.269531 0.953125 24.851562 -2.6875 17.4375 -9.96875 C 10.03125 -17.25 6.328125 -27.21875 6.328125 -39.875 C 6.328125 -48.6875 8.175781 -56.894531 11.875 -64.5 C 15.582031 -72.101562 20.726562 -78.140625 27.3125 -82.609375 C 33.894531 -87.085938 41.335938 -89.328125 49.640625 -89.328125 C 57.054688 -89.328125 63 -87.117188 67.46875 -82.703125 C 71.945312 -78.296875 74.1875 -72.328125 74.1875 -64.796875 C 74.1875 -55.972656 71.019531 -48.398438 64.6875 -42.078125 C 58.363281 -35.753906 47.664062 -30.738281 32.59375 -27.03125 C 35.78125 -21.144531 41.847656 -18.203125 50.796875 -18.203125 C 56.546875 -18.203125 63.09375 -20.210938 70.4375 -24.234375 C 77.789062 -28.265625 84.148438 -33.539062 89.515625 -40.0625 C 91.046875 -41.851562 92.769531 -42.75 94.6875 -42.75 Z M 46.390625 -70.546875 C 41.660156 -70.546875 37.664062 -67.796875 34.40625 -62.296875 C 31.144531 -56.804688 29.515625 -50.160156 29.515625 -42.359375 L 29.515625 -41.984375 C 37.054688 -43.765625 43 -46.441406 47.34375 -50.015625 C 51.6875 -53.597656 53.859375 -57.753906 53.859375 -62.484375 C 53.859375 -64.910156 53.1875 -66.859375 51.84375 -68.328125 C 50.507812 -69.804688 48.691406 -70.546875 46.390625 -70.546875 Z M 46.390625 -70.546875 "/></g></g></g><g fill="#000000" fill-opacity="1"><g transform="translate(1096.080869, 557.028674)"><g><path d="M 44.859375 5.171875 C 38.210938 5.171875 33.128906 3.632812 29.609375 0.5625 C 26.097656 -2.5 24.34375 -5.945312 24.34375 -9.78125 C 24.34375 -13.101562 25.554688 -15.976562 27.984375 -18.40625 C 30.410156 -20.832031 33.988281 -22.046875 38.71875 -22.046875 C 40.382812 -22.046875 42.332031 -21.882812 44.5625 -21.5625 C 46.800781 -21.238281 48.492188 -21.015625 49.640625 -20.890625 C 49.515625 -24.210938 48.78125 -27.34375 47.4375 -30.28125 C 46.101562 -33.226562 44.410156 -36.070312 42.359375 -38.8125 C 40.316406 -41.5625 38.398438 -43.957031 36.609375 -46 C 32.648438 -38.46875 28.722656 -32.207031 24.828125 -27.21875 C 20.929688 -22.238281 16.679688 -17.507812 12.078125 -13.03125 C 9.773438 -10.726562 7.347656 -9.578125 4.796875 -9.578125 C 2.742188 -9.578125 1.082031 -10.3125 -0.1875 -11.78125 C -1.46875 -13.257812 -2.109375 -15.082031 -2.109375 -17.25 C -2.109375 -19.800781 -1.210938 -22.164062 0.578125 -24.34375 L 3.0625 -27.40625 C 10.09375 -36.101562 15.398438 -43.257812 18.984375 -48.875 C 21.148438 -52.582031 23.703125 -57.535156 26.640625 -63.734375 C 29.578125 -69.929688 32.453125 -76.351562 35.265625 -83 C 37.691406 -88.625 42.738281 -91.4375 50.40625 -91.4375 C 53.988281 -91.4375 56.484375 -91.113281 57.890625 -90.46875 C 59.296875 -89.832031 60 -88.8125 60 -87.40625 C 60 -86.644531 59.742188 -85.429688 59.234375 -83.765625 C 58.722656 -82.109375 58.019531 -80.445312 57.125 -78.78125 C 54.820312 -74.1875 53.671875 -70.289062 53.671875 -67.09375 C 53.671875 -65.175781 54.34375 -63.066406 55.6875 -60.765625 C 57.03125 -58.460938 59.109375 -55.585938 61.921875 -52.140625 C 66.003906 -46.773438 69.097656 -42.207031 71.203125 -38.4375 C 73.316406 -34.664062 74.375 -30.539062 74.375 -26.0625 C 74.375 -24.789062 74.242188 -23.003906 73.984375 -20.703125 C 80.253906 -23.128906 87.601562 -29.582031 96.03125 -40.0625 C 97.5625 -41.851562 99.289062 -42.75 101.21875 -42.75 C 102.875 -42.75 104.179688 -41.976562 105.140625 -40.4375 C 106.097656 -38.90625 106.578125 -36.800781 106.578125 -34.125 C 106.578125 -29.269531 105.363281 -25.304688 102.9375 -22.234375 C 96.550781 -14.304688 90.445312 -8.90625 84.625 -6.03125 C 78.8125 -3.15625 71.625 -1.59375 63.0625 -1.34375 C 57.945312 3 51.878906 5.171875 44.859375 5.171875 Z M 44.859375 5.171875 "/></g></g></g></svg>